<svg width="602" height="457" viewBox="0 0 602 457" fill="none" xmlns="http://www.w3.org/2000/svg">
<path d="M594.688 449.486H594.198V449.959C594.197 449.966 594.194 449.979 594.188 449.997C594.17 450.052 594.124 450.162 594.01 450.315C593.781 450.625 593.275 451.118 592.174 451.69C589.963 452.84 585.448 454.264 576.291 455.216C557.989 457.119 521.318 457.124 447.901 449.489C374.47 441.853 337.715 441.848 319.306 443.763C310.107 444.719 305.443 446.159 303.065 447.396C302.003 447.948 301.377 448.469 301.01 448.905C300.645 448.452 300.02 447.906 298.943 447.327C296.564 446.049 291.899 444.561 282.698 443.572C264.287 441.594 227.531 441.598 154.099 449.489C80.6821 457.378 44.0136 457.374 25.7129 455.407C16.5578 454.423 12.0447 452.953 9.83496 451.766C8.73433 451.174 8.2275 450.665 7.99707 450.343C7.88236 450.183 7.83465 450.067 7.81543 450.007C7.80751 449.982 7.80495 449.966 7.80371 449.959V449.486H7.31348C7.31569 449.486 7.31758 449.487 7.31836 449.487L7.31152 449.486C7.2998 449.485 7.2743 449.481 7.23633 449.473C7.15996 449.455 7.03034 449.415 6.85938 449.326C6.51892 449.149 5.99747 448.77 5.39453 447.957C4.1811 446.32 2.65744 442.948 1.63574 436.056C-0.407024 422.274 -0.416894 394.62 7.79785 339.202C16.0157 283.763 16.0253 255.988 13.96 242.055C12.9276 235.09 11.3707 231.532 10.0166 229.705C9.49901 229.007 9.00752 228.558 8.58496 228.271C9.00753 227.983 9.499 227.534 10.0166 226.836C11.3708 225.009 12.9286 221.451 13.9609 214.486C16.0263 200.553 16.0158 172.778 7.79785 117.339C-0.417001 61.9208 -0.407042 34.2667 1.63574 20.4854C2.65746 13.5928 4.18108 10.2212 5.39453 8.58398C5.99748 7.77054 6.51891 7.39162 6.85938 7.21484C7.03034 7.12613 7.15996 7.08612 7.23633 7.06836L7.31152 7.05469H7.80371V6.5957C7.80451 6.59342 7.80554 6.59077 7.80664 6.58789C7.82018 6.55258 7.8607 6.46567 7.9707 6.33691C8.19374 6.07587 8.69719 5.6495 9.80371 5.15137C12.0216 4.15298 16.5439 2.91852 25.7041 2.09375C44.0137 0.445233 80.6896 0.442509 154.107 7.05273C227.538 13.6641 264.287 13.6676 282.689 12.0107C291.885 11.1828 296.541 9.93661 298.912 8.86914C299.971 8.39251 300.597 7.94066 300.969 7.55762C301.33 7.99213 301.962 8.51827 303.071 9.0752C305.448 10.2684 310.109 11.6583 319.308 12.582C337.716 14.4306 374.469 14.426 447.899 7.05176C521.317 -0.321122 557.989 -0.316713 576.293 1.52148C585.451 2.44115 589.967 3.81672 592.18 4.92773C593.282 5.48144 593.787 5.95712 594.015 6.25391C594.127 6.40104 594.172 6.50462 594.189 6.55469C594.194 6.56712 594.197 6.57663 594.198 6.58301V7.05469H594.688L594.757 7.06738C594.828 7.08458 594.951 7.1241 595.115 7.21191C595.442 7.38695 595.946 7.76415 596.53 8.57812C597.706 10.2159 599.182 13.5883 600.172 20.4824C602.151 34.266 602.16 61.9227 594.204 117.342C586.245 172.781 586.235 200.553 588.235 214.484C589.235 221.447 590.744 225.004 592.055 226.83C592.552 227.523 593.024 227.971 593.433 228.26C593.007 228.547 592.51 228.998 591.986 229.705C590.633 231.532 589.076 235.09 588.044 242.055C585.979 255.988 585.989 283.763 594.204 339.202C602.416 394.62 602.406 422.274 600.364 436.056C599.343 442.948 597.821 446.32 596.607 447.957C596.005 448.771 595.483 449.149 595.143 449.326C594.972 449.415 594.842 449.455 594.766 449.473C594.728 449.482 594.702 449.485 594.69 449.486L594.684 449.487L594.688 449.486Z" fill="#F6AD02" stroke="#FF0000"/>
<path d="M444.863 10.9355C516.817 3.69356 552.756 3.69846 570.694 5.50391C579.669 6.4072 584.095 7.75722 586.262 8.84766C587.341 9.39099 587.835 9.85739 588.057 10.1475C588.166 10.291 588.21 10.392 588.227 10.4404C588.23 10.4516 588.233 10.4607 588.234 10.4668V10.9375H588.718C588.716 10.9374 588.718 10.938 588.723 10.9385C588.732 10.9396 588.755 10.942 588.789 10.9502C588.858 10.9669 588.978 11.0051 589.138 11.0908C589.456 11.2619 589.949 11.6319 590.521 12.4307C591.672 14.0378 593.119 17.3488 594.089 24.1201C596.028 37.6579 596.037 64.8225 588.24 119.258C580.44 173.713 580.43 200.994 582.391 214.679C583.37 221.518 584.849 225.013 586.135 226.809C586.618 227.484 587.078 227.923 587.478 228.208C587.061 228.491 586.578 228.934 586.068 229.623C584.74 231.419 583.214 234.915 582.202 241.757C580.178 255.444 580.188 282.727 588.24 337.183C596.289 391.617 596.28 418.78 594.278 432.315C593.277 439.085 591.784 442.394 590.597 444.001C590.006 444.8 589.496 445.171 589.164 445.344C588.997 445.43 588.872 445.469 588.798 445.486C588.761 445.495 588.737 445.499 588.726 445.5H588.234V445.972C588.233 445.979 588.23 445.991 588.225 446.008C588.207 446.061 588.163 446.168 588.052 446.318C587.828 446.621 587.334 447.104 586.255 447.666C584.09 448.794 579.666 450.193 570.692 451.128C552.756 452.997 516.818 453.002 444.865 445.503C372.897 438.002 336.874 437.997 318.83 439.878C309.814 440.818 305.241 442.232 302.909 443.447C301.876 443.986 301.264 444.495 300.901 444.923C300.542 444.478 299.929 443.945 298.88 443.38C296.546 442.123 291.972 440.662 282.955 439.69C264.909 437.747 228.885 437.752 156.917 445.503C84.9645 453.252 49.0276 453.247 31.0928 451.315C22.1201 450.349 17.698 448.904 15.5342 447.739C14.4566 447.159 13.9611 446.659 13.7363 446.345C13.6246 446.188 13.5781 446.076 13.5596 446.018C13.5529 445.997 13.5503 445.982 13.5488 445.975V445.5H13.0576C13.0466 445.499 13.0221 445.495 12.9854 445.486C12.9114 445.469 12.7857 445.43 12.6191 445.344C12.287 445.171 11.7761 444.8 11.1855 444.001C9.99756 442.394 8.5051 439.085 7.50391 432.315C5.50199 418.78 5.49189 391.618 13.543 337.183C21.5971 282.727 21.6074 255.444 19.583 241.757C18.5711 234.916 17.0442 231.419 15.7158 229.623C15.2123 228.942 14.7341 228.502 14.3213 228.219C14.734 227.935 15.2124 227.495 15.7158 226.814C17.0442 225.018 18.5712 221.522 19.583 214.681C21.6074 200.993 21.5971 173.711 13.543 119.256C5.49176 64.8208 5.50195 37.6575 7.50391 24.1221C8.50518 17.3526 9.99753 14.043 11.1855 12.4365C11.7761 11.6379 12.287 11.2675 12.6191 11.0947C12.7858 11.008 12.9114 10.9684 12.9854 10.9512C13.022 10.9426 13.0465 10.9397 13.0576 10.9385C13.0621 10.938 13.0646 10.9375 13.0645 10.9375H13.5488V10.4785C13.5494 10.477 13.5501 10.4753 13.5508 10.4736C13.5637 10.4399 13.6028 10.3552 13.71 10.2295C13.9273 9.97449 14.4193 9.55628 15.5029 9.06738C17.6749 8.08743 22.1063 6.87554 31.084 6.06543C49.0276 4.44629 84.9712 4.44273 156.925 10.9355C228.892 17.4296 264.909 17.4332 282.946 15.8057C291.959 14.9924 296.523 13.769 298.849 12.7197C299.88 12.2546 300.493 11.8131 300.859 11.4375C301.216 11.8638 301.836 12.3781 302.916 12.9219C305.247 14.0948 309.817 15.4598 318.832 16.3672C336.874 18.1831 372.896 18.179 444.863 10.9355Z" fill="#FFFDDB" stroke="#FF0000"/>
<path d="M13 11L590 446" stroke="#FF0000"/>
<path d="M585 11L13 446" stroke="#FF0000"/>
<path d="M183.001 140.5C183.001 140.5 199.002 94.5 241.251 75.75C283.5 57 299.501 11 299.501 11" stroke="#FF0000"/>
<path d="M415.751 140C415.751 140 476.492 152.087 501.251 184C526.01 215.913 586.751 228 586.751 228" stroke="#FF0000"/>
<path d="M182.751 317C182.751 317 198.821 362.822 241.251 381.5C283.681 400.178 299.751 446 299.751 446" stroke="#FF0000"/>
<path d="M182.751 140C182.751 140 122.365 152.087 97.751 184C73.1371 215.913 12.751 228 12.751 228" stroke="#FF0000"/>
<path d="M416.501 140C416.501 140 400.431 94.1776 358.001 75.5C315.571 56.8224 299.501 11 299.501 11" stroke="#FF0000"/>
<path d="M415.751 317C415.751 317 476.492 304.776 501.251 272.5C526.01 240.224 586.751 228 586.751 228" stroke="#FF0000"/>
<path d="M416.751 317C416.751 317 400.681 362.822 358.251 381.5C315.821 400.178 299.751 446 299.751 446" stroke="#FF0000"/>
<path d="M182.751 317C182.751 317 122.365 304.776 97.751 272.5C73.1371 240.224 12.751 228 12.751 228" stroke="#FF0000"/>
<path d="M299.071 264.618V278H296.242V267.304H296.164L293.099 269.225V266.716L296.412 264.618H299.071ZM307.499 278.294C306.375 278.29 305.408 278.013 304.598 277.464C303.792 276.915 303.171 276.12 302.735 275.079C302.304 274.038 302.091 272.786 302.095 271.322C302.095 269.863 302.311 268.619 302.742 267.591C303.178 266.563 303.798 265.781 304.604 265.245C305.414 264.705 306.379 264.435 307.499 264.435C308.618 264.435 309.581 264.705 310.387 265.245C311.197 265.786 311.82 266.57 312.256 267.598C312.691 268.621 312.907 269.863 312.902 271.322C312.902 272.79 312.685 274.045 312.249 275.086C311.818 276.127 311.199 276.922 310.393 277.471C309.587 278.02 308.623 278.294 307.499 278.294ZM307.499 275.948C308.265 275.948 308.877 275.563 309.335 274.792C309.792 274.021 310.019 272.864 310.014 271.322C310.014 270.307 309.91 269.462 309.701 268.787C309.496 268.112 309.204 267.604 308.825 267.264C308.451 266.925 308.008 266.755 307.499 266.755C306.736 266.755 306.127 267.136 305.669 267.898C305.212 268.661 304.981 269.802 304.977 271.322C304.977 272.35 305.079 273.208 305.284 273.897C305.493 274.58 305.787 275.095 306.166 275.439C306.545 275.778 306.989 275.948 307.499 275.948Z" fill="black"/>
<path d="M350.405 222.618V236H347.576V225.304H347.498L344.433 227.225V224.716L347.746 222.618H350.405Z" fill="black"/>
<path d="M299.147 196.648V194.42L304.734 185.618H306.655V188.702H305.518L301.996 194.276V194.38H309.935V196.648H299.147ZM305.57 199V195.968L305.622 194.982V185.618H308.275V199H305.57Z" fill="black"/>
<path d="M255.642 235L261.19 224.023V223.931H254.728V221.618H264.117V223.964L258.563 235H255.642Z" fill="black"/>
<path d="M469.11 323.618V337H466.281V326.304H466.203L463.138 328.225V325.716L466.451 323.618H469.11ZM472.291 337V334.961L477.054 330.551C477.459 330.159 477.799 329.806 478.074 329.492C478.352 329.179 478.564 328.872 478.707 328.571C478.851 328.266 478.923 327.937 478.923 327.584C478.923 327.192 478.834 326.855 478.655 326.572C478.477 326.284 478.233 326.064 477.923 325.912C477.614 325.755 477.263 325.676 476.871 325.676C476.462 325.676 476.105 325.759 475.8 325.925C475.495 326.09 475.26 326.328 475.094 326.637C474.929 326.946 474.846 327.314 474.846 327.741H472.16C472.16 326.866 472.358 326.105 472.755 325.461C473.151 324.816 473.707 324.317 474.421 323.964C475.135 323.612 475.959 323.435 476.891 323.435C477.849 323.435 478.683 323.605 479.393 323.945C480.108 324.28 480.663 324.746 481.06 325.343C481.456 325.94 481.654 326.624 481.654 327.395C481.654 327.9 481.554 328.399 481.354 328.891C481.158 329.383 480.807 329.93 480.302 330.531C479.796 331.128 479.084 331.845 478.165 332.681L476.211 334.595V334.687H481.831V337H472.291Z" fill="black"/>
<path d="M426.404 347.618V361H423.575V350.304H423.497L420.432 352.225V349.716L423.745 347.618H426.404ZM435.407 347.618V361H432.577V350.304H432.499L429.434 352.225V349.716L432.747 347.618H435.407Z" fill="black"/>
<path d="M138.494 333.183C137.488 333.183 136.593 333.02 135.809 332.693C135.029 332.362 134.417 331.911 133.973 331.34C133.528 330.77 133.306 330.123 133.306 329.4C133.306 328.842 133.433 328.33 133.685 327.864C133.942 327.394 134.291 327.004 134.731 326.695C135.171 326.381 135.663 326.181 136.207 326.093V326.002C135.493 325.858 134.914 325.512 134.469 324.963C134.025 324.41 133.803 323.767 133.803 323.036C133.803 322.343 134.005 321.727 134.41 321.186C134.816 320.642 135.371 320.215 136.077 319.906C136.787 319.592 137.593 319.435 138.494 319.435C139.396 319.435 140.2 319.592 140.905 319.906C141.615 320.219 142.173 320.648 142.578 321.193C142.983 321.733 143.188 322.347 143.192 323.036C143.188 323.772 142.961 324.414 142.513 324.963C142.064 325.512 141.489 325.858 140.788 326.002V326.093C141.324 326.181 141.809 326.381 142.245 326.695C142.685 327.004 143.033 327.394 143.29 327.864C143.552 328.33 143.685 328.842 143.689 329.4C143.685 330.123 143.46 330.77 143.016 331.34C142.572 331.911 141.957 332.362 141.173 332.693C140.394 333.02 139.501 333.183 138.494 333.183ZM138.494 331.105C138.943 331.105 139.335 331.025 139.67 330.863C140.006 330.698 140.267 330.471 140.455 330.184C140.646 329.892 140.742 329.557 140.742 329.178C140.742 328.79 140.644 328.448 140.448 328.152C140.252 327.851 139.986 327.616 139.651 327.446C139.315 327.272 138.93 327.185 138.494 327.185C138.063 327.185 137.678 327.272 137.338 327.446C136.998 327.616 136.73 327.851 136.534 328.152C136.342 328.448 136.247 328.79 136.247 329.178C136.247 329.557 136.34 329.892 136.528 330.184C136.715 330.471 136.978 330.698 137.318 330.863C137.658 331.025 138.05 331.105 138.494 331.105ZM138.494 325.126C138.869 325.126 139.202 325.05 139.494 324.898C139.786 324.745 140.015 324.534 140.18 324.264C140.346 323.994 140.428 323.682 140.428 323.33C140.428 322.981 140.346 322.676 140.18 322.415C140.015 322.149 139.788 321.942 139.501 321.794C139.213 321.642 138.878 321.565 138.494 321.565C138.115 321.565 137.78 321.642 137.488 321.794C137.196 321.942 136.967 322.149 136.802 322.415C136.641 322.676 136.56 322.981 136.56 323.33C136.56 323.682 136.643 323.994 136.808 324.264C136.974 324.534 137.203 324.745 137.495 324.898C137.786 325.05 138.12 325.126 138.494 325.126Z" fill="black"/>
<path d="M176.353 346.435C177.041 346.435 177.703 346.551 178.339 346.782C178.98 347.012 179.55 347.38 180.051 347.886C180.557 348.391 180.955 349.062 181.247 349.898C181.543 350.73 181.694 351.752 181.698 352.963C181.698 354.1 181.569 355.115 181.312 356.008C181.06 356.896 180.696 357.652 180.221 358.275C179.746 358.898 179.174 359.373 178.503 359.699C177.832 360.022 177.083 360.183 176.255 360.183C175.362 360.183 174.574 360.011 173.89 359.667C173.206 359.318 172.655 358.846 172.237 358.249C171.823 357.648 171.572 356.973 171.485 356.223H174.275C174.384 356.711 174.613 357.09 174.961 357.36C175.31 357.626 175.741 357.759 176.255 357.759C177.126 357.759 177.788 357.38 178.241 356.622C178.694 355.86 178.923 354.816 178.927 353.492H178.836C178.636 353.884 178.365 354.222 178.026 354.505C177.686 354.784 177.296 354.999 176.856 355.152C176.421 355.304 175.957 355.38 175.464 355.38C174.676 355.38 173.972 355.195 173.354 354.825C172.735 354.455 172.247 353.945 171.89 353.296C171.533 352.647 171.354 351.906 171.354 351.074C171.35 350.177 171.557 349.378 171.975 348.676C172.393 347.975 172.977 347.426 173.726 347.03C174.48 346.629 175.355 346.431 176.353 346.435ZM176.373 348.657C175.933 348.657 175.541 348.761 175.196 348.97C174.857 349.18 174.587 349.461 174.386 349.813C174.19 350.166 174.094 350.56 174.099 350.996C174.099 351.436 174.195 351.832 174.386 352.185C174.582 352.534 174.848 352.812 175.183 353.022C175.523 353.226 175.911 353.329 176.346 353.329C176.673 353.329 176.976 353.268 177.255 353.146C177.533 353.024 177.775 352.856 177.98 352.643C178.189 352.425 178.352 352.174 178.47 351.891C178.588 351.608 178.646 351.307 178.646 350.989C178.642 350.567 178.542 350.179 178.346 349.826C178.15 349.474 177.88 349.19 177.536 348.977C177.192 348.764 176.804 348.657 176.373 348.657Z" fill="black"/>
<path d="M129.647 136.183C128.959 136.179 128.294 136.063 127.654 135.837C127.018 135.61 126.447 135.242 125.942 134.732C125.437 134.223 125.036 133.548 124.74 132.707C124.448 131.866 124.302 130.834 124.302 129.61C124.306 128.486 124.435 127.482 124.688 126.597C124.945 125.709 125.311 124.955 125.785 124.337C126.265 123.718 126.837 123.248 127.504 122.925C128.17 122.599 128.917 122.435 129.745 122.435C130.638 122.435 131.426 122.609 132.11 122.958C132.794 123.302 133.343 123.77 133.757 124.363C134.175 124.955 134.428 125.62 134.515 126.356H131.725C131.616 125.89 131.387 125.524 131.039 125.258C130.69 124.992 130.259 124.859 129.745 124.859C128.874 124.859 128.212 125.238 127.759 125.996C127.31 126.754 127.081 127.784 127.073 129.087H127.164C127.364 128.691 127.635 128.353 127.974 128.074C128.318 127.791 128.708 127.575 129.144 127.427C129.584 127.275 130.048 127.199 130.536 127.199C131.328 127.199 132.034 127.386 132.653 127.761C133.271 128.131 133.759 128.64 134.116 129.289C134.474 129.939 134.652 130.681 134.652 131.518C134.652 132.424 134.441 133.23 134.018 133.935C133.6 134.641 133.014 135.194 132.261 135.595C131.511 135.991 130.64 136.187 129.647 136.183ZM129.634 133.961C130.07 133.961 130.459 133.857 130.804 133.648C131.148 133.439 131.418 133.155 131.614 132.798C131.81 132.441 131.908 132.04 131.908 131.596C131.908 131.152 131.81 130.753 131.614 130.4C131.422 130.047 131.156 129.766 130.817 129.557C130.477 129.348 130.089 129.244 129.654 129.244C129.327 129.244 129.024 129.305 128.745 129.427C128.471 129.549 128.229 129.719 128.02 129.936C127.815 130.154 127.654 130.407 127.537 130.694C127.419 130.977 127.36 131.28 127.36 131.603C127.36 132.034 127.458 132.428 127.654 132.785C127.854 133.142 128.125 133.428 128.464 133.641C128.808 133.855 129.198 133.961 129.634 133.961Z" fill="black"/>
<path d="M178.042 105.183C177.119 105.183 176.296 105.013 175.573 104.673C174.854 104.334 174.283 103.865 173.861 103.268C173.438 102.672 173.218 101.988 173.201 101.217H175.945C175.976 101.735 176.193 102.155 176.598 102.478C177.004 102.8 177.485 102.961 178.042 102.961C178.487 102.961 178.879 102.863 179.219 102.667C179.563 102.467 179.831 102.19 180.022 101.838C180.218 101.48 180.316 101.071 180.316 100.609C180.316 100.139 180.216 99.7248 180.016 99.3676C179.82 99.0104 179.547 98.7316 179.199 98.5313C178.851 98.3309 178.452 98.2285 178.003 98.2241C177.611 98.2241 177.23 98.3047 176.86 98.4659C176.494 98.6271 176.209 98.8471 176.004 99.1259L173.488 98.675L174.122 91.6182H182.303V93.9313H176.455L176.108 97.2832H176.187C176.422 96.9522 176.777 96.6777 177.252 96.4599C177.727 96.2421 178.258 96.1332 178.846 96.1332C179.652 96.1332 180.371 96.3227 181.002 96.7017C181.634 97.0807 182.133 97.6012 182.499 98.2634C182.865 98.9211 183.045 99.6791 183.041 100.537C183.045 101.439 182.836 102.24 182.414 102.942C181.996 103.639 181.41 104.188 180.656 104.588C179.907 104.985 179.036 105.183 178.042 105.183Z" fill="black"/>
<path d="M432.467 105.183C431.491 105.183 430.622 105.015 429.859 104.68C429.101 104.34 428.502 103.874 428.063 103.282C427.627 102.685 427.403 101.996 427.39 101.217H430.238C430.256 101.543 430.363 101.831 430.559 102.079C430.759 102.323 431.025 102.513 431.356 102.648C431.687 102.783 432.059 102.85 432.473 102.85C432.904 102.85 433.285 102.774 433.617 102.622C433.948 102.469 434.207 102.258 434.394 101.988C434.581 101.718 434.675 101.406 434.675 101.053C434.675 100.696 434.575 100.38 434.374 100.106C434.178 99.8272 433.895 99.6094 433.525 99.4526C433.159 99.2957 432.724 99.2173 432.218 99.2173H430.97V97.1395H432.218C432.645 97.1395 433.022 97.0654 433.349 96.9173C433.68 96.7692 433.937 96.5645 434.12 96.3031C434.303 96.0374 434.394 95.7281 434.394 95.3753C434.394 95.0399 434.313 94.7458 434.152 94.4932C433.995 94.2362 433.773 94.0358 433.486 93.892C433.203 93.7483 432.872 93.6764 432.493 93.6764C432.109 93.6764 431.759 93.7461 431.441 93.8855C431.123 94.0205 430.868 94.2144 430.676 94.467C430.485 94.7197 430.382 95.0159 430.369 95.3557H427.657C427.67 94.5847 427.89 93.9051 428.317 93.317C428.744 92.729 429.319 92.2694 430.042 91.9384C430.77 91.6029 431.591 91.4352 432.506 91.4352C433.429 91.4352 434.237 91.6029 434.93 91.9384C435.622 92.2738 436.16 92.7268 436.544 93.2974C436.931 93.8637 437.123 94.4997 437.119 95.2054C437.123 95.9546 436.89 96.5797 436.42 97.0807C435.954 97.5816 435.346 97.8996 434.597 98.0347V98.1392C435.581 98.2655 436.33 98.6075 436.844 99.1651C437.363 99.7183 437.62 100.411 437.615 101.243C437.62 102.005 437.4 102.683 436.955 103.275C436.515 103.867 435.908 104.334 435.132 104.673C434.357 105.013 433.468 105.183 432.467 105.183Z" fill="black"/>
<path d="M467.29 130V127.961L472.053 123.551C472.458 123.159 472.798 122.806 473.072 122.492C473.351 122.179 473.562 121.872 473.706 121.571C473.85 121.266 473.922 120.937 473.922 120.584C473.922 120.192 473.833 119.855 473.654 119.572C473.475 119.284 473.231 119.064 472.922 118.912C472.613 118.755 472.262 118.676 471.87 118.676C471.461 118.676 471.103 118.759 470.799 118.925C470.494 119.09 470.258 119.328 470.093 119.637C469.927 119.946 469.845 120.314 469.845 120.741H467.159C467.159 119.866 467.357 119.105 467.754 118.461C468.15 117.816 468.705 117.317 469.42 116.964C470.134 116.612 470.958 116.435 471.89 116.435C472.848 116.435 473.682 116.605 474.392 116.945C475.107 117.28 475.662 117.746 476.058 118.343C476.455 118.94 476.653 119.624 476.653 120.395C476.653 120.9 476.553 121.399 476.353 121.891C476.156 122.383 475.806 122.93 475.301 123.531C474.795 124.128 474.083 124.845 473.164 125.681L471.21 127.595V127.687H476.83V130H467.29Z" fill="black"/>
</svg>
