<svg width="602" height="457" viewBox="0 0 602 457" fill="none" xmlns="http://www.w3.org/2000/svg">
<path d="M594.688 449.486H594.198V449.959C594.197 449.966 594.194 449.979 594.188 449.997C594.17 450.052 594.124 450.162 594.01 450.315C593.781 450.625 593.275 451.118 592.174 451.69C589.963 452.84 585.448 454.264 576.291 455.216C557.989 457.119 521.318 457.124 447.901 449.489C374.47 441.853 337.715 441.848 319.306 443.763C310.107 444.719 305.443 446.159 303.065 447.396C302.003 447.948 301.377 448.469 301.01 448.905C300.645 448.452 300.02 447.906 298.943 447.327C296.564 446.049 291.899 444.561 282.698 443.572C264.287 441.594 227.531 441.598 154.099 449.489C80.6821 457.378 44.0136 457.374 25.7129 455.407C16.5578 454.423 12.0447 452.953 9.83496 451.766C8.73433 451.174 8.2275 450.665 7.99707 450.343C7.88236 450.183 7.83465 450.067 7.81543 450.007C7.80751 449.982 7.80495 449.966 7.80371 449.959V449.486H7.31348C7.31569 449.486 7.31758 449.487 7.31836 449.487L7.31152 449.486C7.2998 449.485 7.2743 449.481 7.23633 449.473C7.15996 449.455 7.03034 449.415 6.85938 449.326C6.51892 449.149 5.99747 448.77 5.39453 447.957C4.1811 446.32 2.65744 442.948 1.63574 436.056C-0.407024 422.274 -0.416894 394.62 7.79785 339.202C16.0157 283.763 16.0253 255.988 13.96 242.055C12.9276 235.09 11.3707 231.532 10.0166 229.705C9.49901 229.007 9.00752 228.558 8.58496 228.271C9.00753 227.983 9.499 227.534 10.0166 226.836C11.3708 225.009 12.9286 221.451 13.9609 214.486C16.0263 200.553 16.0158 172.778 7.79785 117.339C-0.417001 61.9208 -0.407042 34.2667 1.63574 20.4854C2.65746 13.5928 4.18108 10.2212 5.39453 8.58398C5.99748 7.77054 6.51891 7.39162 6.85938 7.21484C7.03034 7.12613 7.15996 7.08612 7.23633 7.06836L7.31152 7.05469H7.80371V6.5957C7.80451 6.59342 7.80554 6.59077 7.80664 6.58789C7.82018 6.55258 7.8607 6.46567 7.9707 6.33691C8.19374 6.07587 8.69719 5.6495 9.80371 5.15137C12.0216 4.15298 16.5439 2.91852 25.7041 2.09375C44.0137 0.445233 80.6896 0.442509 154.107 7.05273C227.538 13.6641 264.287 13.6676 282.689 12.0107C291.885 11.1828 296.541 9.93661 298.912 8.86914C299.971 8.39251 300.597 7.94066 300.969 7.55762C301.33 7.99213 301.962 8.51827 303.071 9.0752C305.448 10.2684 310.109 11.6583 319.308 12.582C337.716 14.4306 374.469 14.426 447.899 7.05176C521.317 -0.321122 557.989 -0.316713 576.293 1.52148C585.451 2.44115 589.967 3.81672 592.18 4.92773C593.282 5.48144 593.787 5.95712 594.015 6.25391C594.127 6.40104 594.172 6.50462 594.189 6.55469C594.194 6.56712 594.197 6.57663 594.198 6.58301V7.05469H594.688L594.757 7.06738C594.828 7.08458 594.951 7.1241 595.115 7.21191C595.442 7.38695 595.946 7.76415 596.53 8.57812C597.706 10.2159 599.182 13.5883 600.172 20.4824C602.151 34.266 602.16 61.9227 594.204 117.342C586.245 172.781 586.235 200.553 588.235 214.484C589.235 221.447 590.744 225.004 592.055 226.83C592.552 227.523 593.024 227.971 593.433 228.26C593.007 228.547 592.51 228.998 591.986 229.705C590.633 231.532 589.076 235.09 588.044 242.055C585.979 255.988 585.989 283.763 594.204 339.202C602.416 394.62 602.406 422.274 600.364 436.056C599.343 442.948 597.821 446.32 596.607 447.957C596.005 448.771 595.483 449.149 595.143 449.326C594.972 449.415 594.842 449.455 594.766 449.473C594.728 449.482 594.702 449.485 594.69 449.486L594.684 449.487L594.688 449.486Z" fill="#F6AD02" stroke="#FF0000"/>
<path d="M444.863 10.9355C516.817 3.69356 552.756 3.69846 570.694 5.50391C579.669 6.4072 584.095 7.75722 586.262 8.84766C587.341 9.39099 587.835 9.85739 588.057 10.1475C588.166 10.291 588.21 10.392 588.227 10.4404C588.23 10.4516 588.233 10.4607 588.234 10.4668V10.9375H588.718C588.716 10.9374 588.718 10.938 588.723 10.9385C588.732 10.9396 588.755 10.942 588.789 10.9502C588.858 10.9669 588.978 11.0051 589.138 11.0908C589.456 11.2619 589.949 11.6319 590.521 12.4307C591.672 14.0378 593.119 17.3488 594.089 24.1201C596.028 37.6579 596.037 64.8225 588.24 119.258C580.44 173.713 580.43 200.994 582.391 214.679C583.37 221.518 584.849 225.013 586.135 226.809C586.618 227.484 587.078 227.923 587.478 228.208C587.061 228.491 586.578 228.934 586.068 229.623C584.74 231.419 583.214 234.915 582.202 241.757C580.178 255.444 580.188 282.727 588.24 337.183C596.289 391.617 596.28 418.78 594.278 432.315C593.277 439.085 591.784 442.394 590.597 444.001C590.006 444.8 589.496 445.171 589.164 445.344C588.997 445.43 588.872 445.469 588.798 445.486C588.761 445.495 588.737 445.499 588.726 445.5H588.234V445.972C588.233 445.979 588.23 445.991 588.225 446.008C588.207 446.061 588.163 446.168 588.052 446.318C587.828 446.621 587.334 447.104 586.255 447.666C584.09 448.794 579.666 450.193 570.692 451.128C552.756 452.997 516.818 453.002 444.865 445.503C372.897 438.002 336.874 437.997 318.83 439.878C309.814 440.818 305.241 442.232 302.909 443.447C301.876 443.986 301.264 444.495 300.901 444.923C300.542 444.478 299.929 443.945 298.88 443.38C296.546 442.123 291.972 440.662 282.955 439.69C264.909 437.747 228.885 437.752 156.917 445.503C84.9645 453.252 49.0276 453.247 31.0928 451.315C22.1201 450.349 17.698 448.904 15.5342 447.739C14.4566 447.159 13.9611 446.659 13.7363 446.345C13.6246 446.188 13.5781 446.076 13.5596 446.018C13.5529 445.997 13.5503 445.982 13.5488 445.975V445.5H13.0576C13.0466 445.499 13.0221 445.495 12.9854 445.486C12.9114 445.469 12.7857 445.43 12.6191 445.344C12.287 445.171 11.7761 444.8 11.1855 444.001C9.99756 442.394 8.5051 439.085 7.50391 432.315C5.50199 418.78 5.49189 391.618 13.543 337.183C21.5971 282.727 21.6074 255.444 19.583 241.757C18.5711 234.916 17.0442 231.419 15.7158 229.623C15.2123 228.942 14.7341 228.502 14.3213 228.219C14.734 227.935 15.2124 227.495 15.7158 226.814C17.0442 225.018 18.5712 221.522 19.583 214.681C21.6074 200.993 21.5971 173.711 13.543 119.256C5.49176 64.8208 5.50195 37.6575 7.50391 24.1221C8.50518 17.3526 9.99753 14.043 11.1855 12.4365C11.7761 11.6379 12.287 11.2675 12.6191 11.0947C12.7858 11.008 12.9114 10.9684 12.9854 10.9512C13.022 10.9426 13.0465 10.9397 13.0576 10.9385C13.0621 10.938 13.0646 10.9375 13.0645 10.9375H13.5488V10.4785C13.5494 10.477 13.5501 10.4753 13.5508 10.4736C13.5637 10.4399 13.6028 10.3552 13.71 10.2295C13.9273 9.97449 14.4193 9.55628 15.5029 9.06738C17.6749 8.08743 22.1063 6.87554 31.084 6.06543C49.0276 4.44629 84.9712 4.44273 156.925 10.9355C228.892 17.4296 264.909 17.4332 282.946 15.8057C291.959 14.9924 296.523 13.769 298.849 12.7197C299.88 12.2546 300.493 11.8131 300.859 11.4375C301.216 11.8638 301.836 12.3781 302.916 12.9219C305.247 14.0948 309.817 15.4598 318.832 16.3672C336.874 18.1831 372.896 18.179 444.863 10.9355Z" fill="#FFFDDB" stroke="#FF0000"/>
<path d="M13 11L590 446" stroke="#FF0000"/>
<path d="M585 11L13 446" stroke="#FF0000"/>
<path d="M183.001 140.5C183.001 140.5 199.002 94.5 241.251 75.75C283.5 57 299.501 11 299.501 11" stroke="#FF0000"/>
<path d="M415.751 140C415.751 140 476.492 152.087 501.251 184C526.01 215.913 586.751 228 586.751 228" stroke="#FF0000"/>
<path d="M182.751 317C182.751 317 198.821 362.822 241.251 381.5C283.681 400.178 299.751 446 299.751 446" stroke="#FF0000"/>
<path d="M182.751 140C182.751 140 122.365 152.087 97.751 184C73.1371 215.913 12.751 228 12.751 228" stroke="#FF0000"/>
<path d="M416.501 140C416.501 140 400.431 94.1776 358.001 75.5C315.571 56.8224 299.501 11 299.501 11" stroke="#FF0000"/>
<path d="M415.751 317C415.751 317 476.492 304.776 501.251 272.5C526.01 240.224 586.751 228 586.751 228" stroke="#FF0000"/>
<path d="M416.751 317C416.751 317 400.681 362.822 358.251 381.5C315.821 400.178 299.751 446 299.751 446" stroke="#FF0000"/>
<path d="M182.751 317C182.751 317 122.365 304.776 97.751 272.5C73.1371 240.224 12.751 228 12.751 228" stroke="#FF0000"/>
</svg>
